<svg width="1146" height="747" xmlns="http://www.w3.org/2000/svg" xmlns:xlink="http://www.w3.org/1999/xlink" xml:space="preserve" overflow="hidden"><g transform="translate(-1420 -756)"><g><g><g><g><path d="M184.346 215.345C184.346 185.721 160.319 161.699 130.689 161.699 101.06 161.699 77.0436 185.721 77.0436 215.345 77.0436 244.991 101.055 269.002 130.689 269.002 160.324 269.002 184.346 244.991 184.346 215.345Z" fill="#6B46C1" fill-rule="nonzero" fill-opacity="1" transform="matrix(-1 1.22465e-16 -1.22696e-16 -1.00189 2258 1290)"/><path d="M398.3 172.179C368.676 172.179 344.654 196.201 344.654 225.825 344.654 255.47 368.676 279.471 398.3 279.471 427.929 279.471 451.951 255.47 451.951 225.825 451.951 196.201 427.935 172.179 398.3 172.179Z" fill="#6B46C1" fill-rule="nonzero" fill-opacity="1" transform="matrix(-1 1.22465e-16 -1.22696e-16 -1.00189 2258 1290)"/><path d="M349.574 285.544C345.844 280.947 340.565 275.625 334.503 270.044 318.326 249.08 293.024 235.516 264.5 235.516 239.113 235.516 216.292 246.265 200.163 263.394 191.001 271.366 182.854 279.148 177.67 285.549L174.2 289.786C158.012 309.523 137.863 334.079 138.011 375.749 138.154 414.445 169.666 445.947 208.251 445.947 230.29 445.947 250.487 435.758 263.622 418.656 276.746 435.758 296.949 445.947 319.008 445.947 357.578 445.947 389.085 414.45 389.233 375.749 389.381 334.079 369.226 309.523 353.044 289.786L349.574 285.544Z" fill="#6B46C1" fill-rule="nonzero" fill-opacity="1" transform="matrix(-1 1.22465e-16 -1.22696e-16 -1.00189 2258 1290)"/><path d="M327.335 142.179C327.335 174.828 300.868 201.295 268.219 201.295 235.57 201.295 209.103 174.828 209.103 142.179 209.103 109.531 235.57 83.0636 268.219 83.0636 300.868 83.0636 327.335 109.531 327.335 142.179Z" fill="#6B46C1" fill-rule="nonzero" fill-opacity="1" transform="matrix(-1 1.22465e-16 -1.22696e-16 -1.00189 2258 1290)"/></g></g></g><text fill="#6B46C1" fill-opacity="1" font-family="DM Serif Display,DM Serif Display_MSFontService,sans-serif" font-style="normal" font-variant="normal" font-weight="400" font-stretch="normal" font-size="83" text-anchor="start" direction="ltr" writing-mode="lr-tb" unicode-bidi="normal" text-decoration="none" transform="matrix(1 0 0 1 1816.97 1296)">pawtraits</text></g></g></svg>